<svg class="icon" viewBox="0 0 1024 1024" version="1.1" xmlns="http://www.w3.org/2000/svg"
     width="128" height="128">
    <path d="M914.285714 420.571429l0 109.714286q0 22.857143-16 38.857143t-38.857143 16l-237.714286 0 0 237.714286q0 22.857143-16 38.857143t-38.857143 16l-109.714286 0q-22.857143 0-38.857143-16t-16-38.857143l0-237.714286-237.714286 0q-22.857143 0-38.857143-16t-16-38.857143l0-109.714286q0-22.857143 16-38.857143t38.857143-16l237.714286 0 0-237.714286q0-22.857143 16-38.857143t38.857143-16l109.714286 0q22.857143 0 38.857143 16t16 38.857143l0 237.714286 237.714286 0q22.857143 0 38.857143 16t16 38.857143z"
          fill="#ffffff"/>
</svg>